<svg width="100" height="100" viewBox="0 0 100 100" fill="none" xmlns="http://www.w3.org/2000/svg">
<mask id="mask0_905_13" style="mask-type:alpha" maskUnits="userSpaceOnUse" x="0" y="0" width="100" height="100">
<rect width="100" height="100" fill="#D9D9D9"/>
</mask>
<g mask="url(#mask0_905_13)">
<path d="M25.0003 91.6667C22.7087 91.6667 20.7469 90.8507 19.1149 89.2188C17.483 87.5869 16.667 85.625 16.667 83.3334V16.6667C16.667 14.375 17.483 12.4132 19.1149 10.7813C20.7469 9.14935 22.7087 8.33337 25.0003 8.33337H58.3337L83.3337 33.3334V83.3334C83.3337 85.625 82.5177 87.5869 80.8857 89.2188C79.2538 90.8507 77.292 91.6667 75.0003 91.6667H25.0003ZM54.167 37.5V16.6667H25.0003V83.3334H75.0003V37.5H54.167Z" fill="#0D6EFD"/>
</g>
</svg>
